# xmcd
#
# Track frame offsets:
#	150
#	13996
#	27880
#	41428
#	54398
#	68711
#	82111
#	97317
#	110466
#	125188
#	138712
#	151135
#	165470
#	180209
#	194839
#	208555
#	223447
#	238002
#	251457
#	265462
#	279603
#	294050
#	307974
#	321706
#	336019
#
# Disc length: 4651 seconds
#
# Revision: 3
# Processed by: cddbd v1.5.2PL0 Copyright (c) Steve Scherf et al.
# Submitted via: EasyCDDAExtractor 11.1.0.1
#
DISCID=82122919
DTITLE=Big Bill Broonzy - All The Classic Sides 1928-1937 - Disc 5
DYEAR=2003
DGENRE=Blues
TTITLE0=Nancy Jane (1936)
TTITLE1=Lowland Blues (1936)
TTITLE2=Seven-Eleven (Dice Please Don't Fail Me) (1936)
TTITLE3=You Know I Got A Reason (1936)
TTITLE4=Oh Babe (Dice Please Don't Fail Me) (1936)
TTITLE5=Detroit Special (1936)
TTITLE6=Falling Rain (1936)
TTITLE7=Black Widow Spider (1936)
TTITLE8=Cherry Hill (1936) (1936
TTITLE9=Out With The Wrong Woman (1936)
TTITLE10=Don't Tear My Clothes No. 2 (1937)
TTITLE11=You Drink Too Much (1937)
TTITLE12=Southern Flood Blues (1937)
TTITLE13=My Big Money (1937)
TTITLE14=My Woman Mistreats Me (1937)
TTITLE15=Let's Reel And Rock (1937)
TTITLE16=Come Up To My House (1937)
TTITLE17=Get Away (1937)
TTITLE18=Terrible Flood Blues (1937)
TTITLE19=Little Bug (1937)
TTITLE20=Horny Frog (take 1) (1937)
TTITLE21=Horny Frog (take 2) (1937)
TTITLE22=Mean Old World (take 1) (1937)
TTITLE23=Mean Old World (take 2) (1937)
TTITLE24=Barrelhouse When It Rains (1937)
EXTD=
EXTT0=
EXTT1=
EXTT2=
EXTT3=
EXTT4=
EXTT5=
EXTT6=
EXTT7=
EXTT8=
EXTT9=
EXTT10=
EXTT11=
EXTT12=
EXTT13=
EXTT14=
EXTT15=
EXTT16=
EXTT17=
EXTT18=
EXTT19=
EXTT20=
EXTT21=
EXTT22=
EXTT23=
EXTT24=
PLAYORDER=
